<svg xmlns="http://www.w3.org/2000/svg" viewBox="0 0 160 160" fill="none">
  <rect x="8" y="8" width="144" height="144" rx="22" fill="#fff9f8" stroke="#e8c7ce" stroke-width="4"/>
  <rect x="24" y="24" width="34" height="34" rx="6" fill="#d88999"/>
  <rect x="31" y="31" width="20" height="20" rx="4" fill="#fff8f7"/>
  <rect x="102" y="24" width="34" height="34" rx="6" fill="#d88999"/>
  <rect x="109" y="31" width="20" height="20" rx="4" fill="#fff8f7"/>
  <rect x="24" y="102" width="34" height="34" rx="6" fill="#d88999"/>
  <rect x="31" y="109" width="20" height="20" rx="4" fill="#fff8f7"/>
  <rect x="76" y="76" width="12" height="12" rx="3" fill="#d88999"/>
  <rect x="92" y="76" width="12" height="12" rx="3" fill="#d88999"/>
  <rect x="108" y="76" width="12" height="12" rx="3" fill="#d88999"/>
  <rect x="76" y="92" width="12" height="12" rx="3" fill="#d88999"/>
  <rect x="108" y="92" width="12" height="12" rx="3" fill="#d88999"/>
  <rect x="76" y="108" width="12" height="12" rx="3" fill="#d88999"/>
  <rect x="92" y="108" width="12" height="12" rx="3" fill="#d88999"/>
  <rect x="108" y="108" width="12" height="12" rx="3" fill="#d88999"/>
  <rect x="60" y="60" width="12" height="12" rx="3" fill="#f0ced4"/>
  <rect x="92" y="60" width="12" height="12" rx="3" fill="#f0ced4"/>
  <rect x="60" y="92" width="12" height="12" rx="3" fill="#f0ced4"/>
</svg>
